<svg width="16" height="16" viewBox="0 0 16 16" xmlns="http://www.w3.org/2000/svg">
  <!-- Clean macOS Touch ID style fingerprint -->
  
  <!-- Fingerprint ridges -->
  <!-- Outer ridges -->
  <path d="M8 4 C11 4, 12 5, 12 7 C12 9, 11 10, 8 10" 
        fill="none" stroke="black" stroke-width="1" stroke-linecap="round" opacity="0.7"/>
  <path d="M8 12 C5 12, 4 11, 4 9 C4 7, 5 6, 8 6" 
        fill="none" stroke="black" stroke-width="1" stroke-linecap="round" opacity="0.7"/>
  
  <!-- Middle ridges -->
  <path d="M8 5 C10 5, 11 6, 11 7.5 C11 9, 10 10, 8 10" 
        fill="none" stroke="black" stroke-width="1" stroke-linecap="round" opacity="0.5"/>
  <path d="M8 11 C6 11, 5 10, 5 8.5 C5 7, 6 6, 8 6" 
        fill="none" stroke="black" stroke-width="1" stroke-linecap="round" opacity="0.5"/>
  
  <!-- Inner ridges -->
  <path d="M8 6.5 C9 6.5, 9.5 7, 9.5 8 C9.5 9, 9 9.5, 8 9.5" 
        fill="none" stroke="black" stroke-width="1" stroke-linecap="round" opacity="0.4"/>
  <path d="M8 9.5 C7 9.5, 6.5 9, 6.5 8 C6.5 7, 7 6.5, 8 6.5" 
        fill="none" stroke="black" stroke-width="1" stroke-linecap="round" opacity="0.4"/>
  
  <!-- Core ridges -->
  <path d="M8 7.5 C8.5 7.5, 8.5 8.5, 8 8.5" 
        fill="none" stroke="black" stroke-width="1" stroke-linecap="round" opacity="0.3"/>
  <path d="M8 8.5 C7.5 8.5, 7.5 7.5, 8 7.5" 
        fill="none" stroke="black" stroke-width="1" stroke-linecap="round" opacity="0.3"/>
</svg>