<svg width="200" height="60" viewBox="0 0 200 60" xmlns="http://www.w3.org/2000/svg">
  <!-- macOS-style Fingerprint Icon -->
  <g transform="translate(10, 10)">
    <!-- Clean fingerprint ridges like macOS Touch ID -->
    <!-- Outer ridges -->
    <path d="M20 8 C26 8, 30 12, 30 18 C30 24, 26 28, 20 28" 
          fill="none" stroke="#333" stroke-width="1.5" stroke-linecap="round" opacity="0.8"/>
    <path d="M20 32 C14 32, 10 28, 10 22 C10 16, 14 12, 20 12" 
          fill="none" stroke="#333" stroke-width="1.5" stroke-linecap="round" opacity="0.8"/>
    
    <!-- Middle ridges -->
    <path d="M20 11 C24.5 11, 27 13.5, 27 18 C27 22.5, 24.5 25, 20 25" 
          fill="none" stroke="#333" stroke-width="1.5" stroke-linecap="round" opacity="0.6"/>
    <path d="M20 29 C15.5 29, 13 26.5, 13 22 C13 17.5, 15.5 15, 20 15" 
          fill="none" stroke="#333" stroke-width="1.5" stroke-linecap="round" opacity="0.6"/>
    
    <!-- Inner ridges -->
    <path d="M20 14 C23 14, 24 15, 24 18 C24 21, 23 22, 20 22" 
          fill="none" stroke="#333" stroke-width="1.5" stroke-linecap="round" opacity="0.5"/>
    <path d="M20 26 C17 26, 16 25, 16 22 C16 19, 17 18, 20 18" 
          fill="none" stroke="#333" stroke-width="1.5" stroke-linecap="round" opacity="0.5"/>
    
    <!-- Core ridge -->
    <path d="M20 17 C21.5 17, 21 18.5, 21 20 C21 21.5, 21.5 23, 20 23" 
          fill="none" stroke="#333" stroke-width="1.5" stroke-linecap="round" opacity="0.4"/>
    <path d="M20 23 C18.5 23, 19 21.5, 19 20 C19 18.5, 18.5 17, 20 17" 
          fill="none" stroke="#333" stroke-width="1.5" stroke-linecap="round" opacity="0.4"/>
  </g>
  
  <!-- App Name Text -->
  <text x="55" y="25" font-family="SF Pro Display, -apple-system, BlinkMacSystemFont, sans-serif" 
        font-size="18" font-weight="600" fill="#333">NO PRINTS</text>
  
  <!-- Menu bar version (smaller, icon only) -->
  <g transform="translate(10, 45)">
    <text x="0" y="12" font-family="SF Pro Display, -apple-system, BlinkMacSystemFont, sans-serif" 
          font-size="10" fill="#666">Menu bar version:</text>
  </g>
  
  <!-- Small menu bar icon -->
  <g transform="translate(120, 43)">
    <g transform="scale(0.5)">
      <!-- Simplified fingerprint for menu bar -->
      <circle cx="8" cy="8" r="6" fill="none" stroke="#333" stroke-width="1.5"/>
      <circle cx="8" cy="8" r="4" fill="none" stroke="#333" stroke-width="1.5" opacity="0.7"/>
      <circle cx="8" cy="8" r="2" fill="none" stroke="#333" stroke-width="1.5" opacity="0.5"/>
      <circle cx="8" cy="8" r="1" fill="#333" opacity="0.4"/>
      <!-- Diagonal slash -->
      <line x1="2" y1="2" x2="14" y2="14" stroke="#e74c3c" stroke-width="2" stroke-linecap="round"/>
    </g>
  </g>
</svg>